<?xml version="1.0" encoding="utf-8"?>
<!-- Generator: Adobe Illustrator 19.0.0, SVG Export Plug-In . SVG Version: 6.00 Build 0)  -->
<svg version="1.1" id="Layer_3" xmlns="http://www.w3.org/2000/svg" xmlns:xlink="http://www.w3.org/1999/xlink" x="0px" y="0px"
	 viewBox="0 0 316.1 114.4" style="enable-background:new 0 0 316.1 114.4;" xml:space="preserve">
<style type="text/css">
	.st0{fill:#FBB616;}
</style>
<g id="XMLID_5_">
	<g>
		<rect x="24.6" y="37.2" transform="matrix(-0.7071 0.7071 -0.7071 -0.7071 106.3895 105.4822)" width="13.6" height="75.1"/>
	</g>
</g>
<g id="XMLID_8_">
	<g id="XMLID_1_">
		<path id="XMLID_2_" d="M87.1,24.3c6.7,0,12.5,1.4,17.3,4.2c4.9,2.8,8.6,6.8,11.2,12c2.6,5.2,4,11.4,4,18.7c0,7.3-1.3,13.5-4,18.7
			c-2.6,5.2-6.4,9.2-11.2,12c-4.9,2.8-10.6,4.2-17.3,4.2c-6.7,0-12.5-1.4-17.4-4.2c-4.9-2.8-8.7-6.8-11.3-12c-2.6-5.2-4-11.4-4-18.7
			c0-7.3,1.3-13.5,4-18.7c2.6-5.2,6.4-9.2,11.3-12C74.6,25.7,80.4,24.3,87.1,24.3z M87.1,35.9c-3.8,0-7,0.9-9.7,2.7
			c-2.7,1.8-4.8,4.4-6.2,7.9c-1.4,3.5-2.1,7.7-2.1,12.7c0,5,0.7,9.2,2.1,12.7c1.4,3.5,3.5,6.1,6.2,7.9c2.7,1.8,5.9,2.7,9.7,2.7
			c3.8,0,7-0.9,9.6-2.7c2.7-1.8,4.7-4.4,6.1-7.9c1.4-3.5,2.1-7.7,2.1-12.7c0-5-0.7-9.2-2.1-12.7c-1.4-3.5-3.4-6.1-6.1-7.9
			C94,36.8,90.8,35.9,87.1,35.9z"/>
		<path id="XMLID_10_" d="M155.4,24.3c6.7,0,12.5,1.4,17.3,4.2c4.9,2.8,8.6,6.8,11.2,12c2.6,5.2,4,11.4,4,18.7
			c0,7.3-1.3,13.5-4,18.7c-2.6,5.2-6.4,9.2-11.2,12c-4.9,2.8-10.6,4.2-17.3,4.2c-6.7,0-12.5-1.4-17.4-4.2c-4.9-2.8-8.7-6.8-11.3-12
			c-2.6-5.2-4-11.4-4-18.7c0-7.3,1.3-13.5,4-18.7c2.6-5.2,6.4-9.2,11.3-12C142.9,25.7,148.7,24.3,155.4,24.3z M155.4,35.9
			c-3.8,0-7,0.9-9.7,2.7c-2.7,1.8-4.8,4.4-6.2,7.9c-1.4,3.5-2.1,7.7-2.1,12.7c0,5,0.7,9.2,2.1,12.7c1.4,3.5,3.5,6.1,6.2,7.9
			c2.7,1.8,5.9,2.7,9.7,2.7c3.8,0,7-0.9,9.6-2.7c2.7-1.8,4.7-4.4,6.1-7.9c1.4-3.5,2.1-7.7,2.1-12.7c0-5-0.7-9.2-2.1-12.7
			c-1.4-3.5-3.4-6.1-6.1-7.9C162.4,36.8,159.2,35.9,155.4,35.9z"/>
		<path id="XMLID_13_" d="M224.4,25.3c7.7,0,13.7,1.8,18.1,5.5c4.4,3.7,6.6,8.7,6.6,14.9c0,6.6-2.2,11.7-6.6,15.2
			c-4.4,3.5-10.4,5.3-18,5.3l-1.4,0.8h-14.6v26h-14V25.3H224.4z M222.7,56.3c4,0,6.9-0.8,8.9-2.4c2-1.6,2.9-4.1,2.9-7.4
			c0-3.4-1-5.8-2.9-7.4c-1.9-1.6-4.9-2.4-8.9-2.4h-14.3v19.7H222.7z M231,59.3L253,93h-15.9l-18.2-29.7L231,59.3z"/>
		<path id="XMLID_17_" d="M282.8,25.3c10.6,0,18.8,2.9,24.6,8.8c5.8,5.8,8.7,14.2,8.7,25.1c0,10.8-2.9,19.2-8.7,25
			c-5.8,5.9-14,8.8-24.6,8.8h-26.2V25.3H282.8z M282,81.7c6.4,0,11.3-1.9,14.5-5.8c3.2-3.9,4.9-9.5,4.9-16.8
			c0-7.3-1.6-12.9-4.9-16.8c-3.3-3.9-8.1-5.8-14.5-5.8h-11.3v45.1H282z"/>
	</g>
</g>
<g id="XMLID_6_">
	<g>
		<rect x="21.5" y="10.7" transform="matrix(0.7071 0.7071 -0.7071 0.7071 39.3471 -7.1468)" width="13.6" height="66.4"/>
	</g>
</g>
<g id="XMLID_9_">
	<g>
		<rect x="7.9" y="83.1" class="st0" width="13.6" height="31.3"/>
	</g>
</g>
<g id="XMLID_4_">
	<g>
		<rect x="7.9" class="st0" width="13.6" height="31.3"/>
	</g>
</g>
</svg>
